<?xml version="1.0" encoding="utf-8"?>
<!-- Generator: Adobe Illustrator 24.1.3, SVG Export Plug-In . SVG Version: 6.00 Build 0)  -->
<svg version="1.1" id="Layer_1" xmlns="http://www.w3.org/2000/svg" xmlns:xlink="http://www.w3.org/1999/xlink" x="0px" y="0px"
	 viewBox="0 0 71.04 68.07" enable-background="new 0 0 71.04 68.07" xml:space="preserve">
<path fill="#A100DD" d="M0,45.75c0,13.38,9.28,22.31,23.97,22.31h12.26c1.03,0,1.76-0.73,1.76-1.71s-0.68-1.71-1.76-1.71H24.02
	c-12.7,0-20.56-7.76-20.56-19.04c0-11.28,7.86-18.9,20.56-18.9h33.35l8.45-0.2l-7.91,7.47L44.78,47.02
	c-0.29,0.29-0.49,0.73-0.49,1.27c0,0.98,0.73,1.71,1.76,1.71c0.49,0,0.93-0.2,1.27-0.54l23.19-23.19c0.34-0.34,0.54-0.78,0.54-1.27
	s-0.2-0.93-0.54-1.27L47.31,0.54C46.97,0.2,46.53,0,46.04,0c-1.03,0-1.76,0.78-1.76,1.71c0,0.54,0.2,0.98,0.49,1.27l13.13,13.09
	l7.91,7.42l-8.45-0.2h-33.2C9.33,23.29,0,32.32,0,45.75z"/>
</svg>
