<?xml version="1.0" encoding="utf-8"?>
<!-- Generator: Adobe Illustrator 24.1.3, SVG Export Plug-In . SVG Version: 6.00 Build 0)  -->
<svg version="1.1" id="Layer_1" xmlns="http://www.w3.org/2000/svg" xmlns:xlink="http://www.w3.org/1999/xlink" x="0px" y="0px"
	 viewBox="0 0 66.37 66.65" enable-background="new 0 0 66.37 66.65" xml:space="preserve">
<g id="Thin-S" transform="matrix(1 0 0 1 813.478 696)">
	<path fill="#F47A00" d="M-780.27-629.35c1.07,0,1.66-0.68,1.66-1.95v-24.66c0-8.3,8.69-21.48,19.92-29.05l3.96,5.37
		c0.98,1.42,2.29,1.17,2.88-0.59l4.59-13.38c0.49-1.42-0.2-2.34-1.71-2.34l-14.16,0.24c-1.81,0.05-2.44,1.22-1.42,2.59l3.81,5.22
		c-10.79,7.57-18.6,19.34-19.48,25.49h-0.15c-0.88-6.2-8.69-17.97-19.48-25.49l3.81-5.13c1.03-1.37,0.39-2.54-1.37-2.59l-14.16-0.39
		c-1.51-0.05-2.25,0.93-1.76,2.34l4.49,13.43c0.54,1.71,1.86,2,2.88,0.63l4-5.47c11.23,7.62,19.97,20.8,19.97,29.1v24.66
		C-781.98-630.03-781.39-629.35-780.27-629.35z"/>
</g>
</svg>
