<?xml version="1.0" encoding="utf-8"?>
<!-- Generator: Adobe Illustrator 24.1.3, SVG Export Plug-In . SVG Version: 6.00 Build 0)  -->
<svg version="1.1" id="Layer_1" xmlns="http://www.w3.org/2000/svg" xmlns:xlink="http://www.w3.org/1999/xlink" x="0px" y="0px"
	 viewBox="0 0 75.73 80.47" enable-background="new 0 0 75.73 80.47" xml:space="preserve">
<g id="Thin-S" transform="matrix(1 0 0 1 808.79 696)">
	<path fill="#1BB200" d="M-770.95-656.74l36.08-20.02c-0.34-0.39-0.78-0.73-1.56-1.17l-29.79-16.65c-1.66-0.93-3.17-1.42-4.74-1.42
		c-1.51,0-3.08,0.49-4.69,1.42l-29.79,16.7c-0.78,0.39-1.22,0.73-1.56,1.12L-770.95-656.74z M-772.75-615.53v-37.94l-35.79-19.73
		c-0.2,0.49-0.24,1.12-0.24,2.05v31.1c0,3.66,1.17,5.37,4.1,6.98l31.01,17.14C-773.44-615.78-773.1-615.58-772.75-615.53z
		 M-769.09-615.53c0.29-0.05,0.63-0.24,0.93-0.39l31.01-17.14c2.88-1.61,4.1-3.32,4.1-6.98v-31.1c0-0.93-0.1-1.56-0.24-2.05
		l-35.79,19.73v37.93H-769.09z"/>
</g>
</svg>
