<?xml version="1.0" encoding="utf-8"?>
<!-- Generator: Adobe Illustrator 24.1.3, SVG Export Plug-In . SVG Version: 6.00 Build 0)  -->
<svg version="1.1" id="Layer_1" xmlns="http://www.w3.org/2000/svg" xmlns:xlink="http://www.w3.org/1999/xlink" x="0px" y="0px"
	 viewBox="0 0 109.08 107.53" enable-background="new 0 0 109.08 107.53" xml:space="preserve">
<g id="Light-M" transform="matrix(1 0 0 1 1089.85 1126)">
	<path fill="#008AFF" d="M-1035.31-1024.65c1.37,0,2.73-0.1,4.15-0.24l2.64,5.08c0.54,1.03,1.42,1.46,2.73,1.32
		c1.17-0.2,1.81-0.93,2-2.2l0.78-5.62c2.69-0.68,5.32-1.66,7.81-2.83l4.15,3.76c0.88,0.83,1.86,0.93,3.03,0.34
		c1.03-0.54,1.37-1.46,1.12-2.73l-1.12-5.52c2.25-1.56,4.39-3.32,6.35-5.32l5.18,2.15c1.07,0.54,2.05,0.29,2.98-0.78
		c0.83-0.88,0.93-1.9,0.2-2.93l-3.03-4.79c1.61-2.25,2.98-4.69,4.15-7.23l5.66,0.29c1.22,0.05,2.1-0.49,2.49-1.66
		c0.39-1.17,0.05-2.1-0.88-2.83l-4.44-3.56c0.73-2.59,1.22-5.37,1.42-8.2l5.37-1.71c1.17-0.44,1.81-1.17,1.81-2.39
		s-0.63-2-1.81-2.44l-5.37-1.66c-0.2-2.88-0.73-5.57-1.42-8.2l4.44-3.56c0.93-0.68,1.22-1.61,0.88-2.78
		c-0.39-1.17-1.27-1.71-2.49-1.66l-5.66,0.24c-1.17-2.59-2.54-4.93-4.15-7.23l3.03-4.79c0.68-0.98,0.64-2-0.2-2.88
		c-0.93-1.07-1.9-1.32-2.98-0.78l-5.18,2.1c-1.95-1.95-4.1-3.76-6.35-5.32l1.12-5.47c0.24-1.27-0.1-2.2-1.12-2.73
		c-1.17-0.63-2.15-0.54-3.03,0.34l-4.15,3.66c-2.49-1.12-5.13-2.05-7.81-2.78l-0.78-5.57c-0.2-1.27-0.88-2-2.05-2.2
		c-1.27-0.15-2.15,0.29-2.69,1.27l-2.64,5.08c-1.42-0.1-2.78-0.2-4.15-0.2c-1.42,0-2.73,0.1-4.15,0.2l-2.69-5.08
		c-0.49-0.98-1.37-1.42-2.69-1.27c-1.17,0.2-1.86,0.93-2,2.2l-0.83,5.57c-2.64,0.73-5.27,1.61-7.81,2.78l-4.15-3.61
		c-0.88-0.88-1.86-0.98-3.03-0.39c-0.98,0.54-1.32,1.46-1.12,2.73l1.17,5.47c-2.25,1.56-4.44,3.37-6.4,5.32l-5.13-2.1
		c-1.12-0.54-2.05-0.29-2.98,0.78c-0.83,0.88-0.88,1.9-0.24,2.83l3.03,4.83c-1.56,2.29-2.93,4.64-4.1,7.23l-5.71-0.24
		c-1.22-0.05-2.05,0.49-2.44,1.66c-0.44,1.17-0.15,2.1,0.88,2.78l4.39,3.56c-0.68,2.64-1.17,5.32-1.37,8.15l-5.37,1.71
		c-1.22,0.44-1.81,1.17-1.81,2.44s0.59,2,1.81,2.39l5.37,1.76c0.2,2.78,0.68,5.57,1.37,8.15l-4.39,3.56
		c-0.98,0.68-1.27,1.61-0.88,2.83c0.39,1.17,1.22,1.71,2.44,1.66l5.71-0.29c1.12,2.54,2.54,4.98,4.1,7.23l-2.98,4.79
		c-0.73,1.03-0.68,2.05,0.2,2.93c0.93,1.07,1.86,1.32,2.98,0.78l5.13-2.15c1.95,2,4.15,3.76,6.4,5.32l-1.17,5.52
		c-0.2,1.27,0.15,2.2,1.12,2.73c1.22,0.59,2.15,0.49,3.03-0.34l4.15-3.76c2.54,1.17,5.18,2.15,7.81,2.88l0.83,5.57
		c0.15,1.27,0.83,2,2.05,2.2c1.27,0.15,2.15-0.29,2.64-1.32l2.69-5.08C-1038.09-1024.75-1036.72-1024.65-1035.31-1024.65z
		 M-1023.64-1074.75c-1.76-5.76-6.2-9.33-11.72-9.33c-1.03,0-2.1,0.15-3.56,0.59l-15.23-26.12c5.62-2.88,12.01-4.49,18.85-4.49
		c22.41,0,39.99,17.19,41.26,39.36H-1023.64z M-1076.62-1072.21c0-14.55,6.98-27.2,17.87-34.67l15.28,26.17
		c-2.59,2.44-3.96,5.47-3.96,8.69c0,3.27,1.42,6.2,4.1,8.74l-15.58,25.63C-1069.68-1045.16-1076.62-1057.81-1076.62-1072.21z
		 M-1041.9-1072.07c0-3.61,3.08-6.49,6.59-6.49c3.66,0,6.64,2.88,6.64,6.49c0,3.66-2.98,6.59-6.64,6.59
		C-1038.82-1065.47-1041.9-1068.4-1041.9-1072.07z M-1035.31-1030.37c-6.88,0-13.33-1.61-18.95-4.54l15.48-25.54
		c1.37,0.39,2.44,0.49,3.42,0.49c5.62,0,10.11-3.66,11.77-9.62h29.54C-995.37-1047.55-1012.95-1030.37-1035.31-1030.37z"/>
</g>
</svg>
