<?xml version="1.0" encoding="utf-8"?>
<!-- Generator: Adobe Illustrator 24.1.3, SVG Export Plug-In . SVG Version: 6.00 Build 0)  -->
<svg version="1.1" id="Layer_1" xmlns="http://www.w3.org/2000/svg" xmlns:xlink="http://www.w3.org/1999/xlink" x="0px" y="0px"
	 viewBox="0 0 96.73 82.57" enable-background="new 0 0 96.73 82.57" xml:space="preserve">
<g id="Light-M" transform="matrix(1 0 0 1 1092.32 1126)">
	<path fill="#00CCE6" d="M-1089.44-1120.29h90.92c1.66,0,2.93-1.22,2.93-2.83s-1.27-2.88-2.93-2.88h-90.92
		c-1.66,0-2.88,1.27-2.88,2.88S-1091.1-1120.29-1089.44-1120.29z M-1089.44-1094.65h90.92c1.66,0,2.93-1.27,2.93-2.88
		c0-1.61-1.27-2.83-2.93-2.83h-90.92c-1.66,0-2.88,1.22-2.88,2.83C-1092.32-1095.92-1091.1-1094.65-1089.44-1094.65z
		 M-1089.44-1069.07h90.92c1.66,0,2.93-1.22,2.93-2.83c0-1.61-1.27-2.88-2.93-2.88h-90.92c-1.66,0-2.88,1.27-2.88,2.88
		C-1092.32-1070.29-1091.1-1069.07-1089.44-1069.07z M-1089.44-1043.43h90.92c1.66,0,2.93-1.27,2.93-2.88s-1.27-2.83-2.93-2.83
		h-90.92c-1.66,0-2.88,1.22-2.88,2.83S-1091.1-1043.43-1089.44-1043.43z"/>
</g>
</svg>
