<?xml version="1.0" encoding="utf-8"?>
<!-- Generator: Adobe Illustrator 24.1.3, SVG Export Plug-In . SVG Version: 6.00 Build 0)  -->
<svg version="1.1" id="Layer_1" xmlns="http://www.w3.org/2000/svg" xmlns:xlink="http://www.w3.org/1999/xlink" x="0px" y="0px"
	 viewBox="0 0 67.92 75.1" enable-background="new 0 0 67.92 75.1" xml:space="preserve">
<g id="Thin-S" transform="matrix(1 0 0 1 812.697 696)">
	<path fill="#BF00B8" d="M-799.22-620.9c1.03,0,1.66-0.54,1.9-1.56l4.44-21.83h20.85l-4.3,20.9c-0.05,0.29-0.1,0.63-0.1,0.83
		c0,1.07,0.68,1.66,1.66,1.66c1.03,0,1.66-0.54,1.9-1.56l4.44-21.83h16.75c1.12,0,1.86-0.73,1.86-1.86c0-0.93-0.63-1.61-1.61-1.61
		h-16.31l4.79-23.39h16.36c1.07,0,1.81-0.73,1.81-1.86c0-0.93-0.63-1.61-1.61-1.61h-15.87l3.86-18.9c0.05-0.24,0.15-0.59,0.15-0.88
		c0-1.03-0.68-1.61-1.71-1.61c-1.07,0-1.61,0.59-1.81,1.56l-4.05,19.82h-20.9l3.86-18.9c0.05-0.24,0.15-0.59,0.15-0.88
		c0-1.03-0.68-1.61-1.71-1.61c-1.07,0-1.66,0.59-1.81,1.56l-4.05,19.82h-15.48c-1.12,0-1.86,0.78-1.86,1.86
		c0,0.98,0.63,1.61,1.61,1.61h14.99l-4.79,23.39h-15.04c-1.12,0-1.86,0.78-1.86,1.86c0,0.98,0.63,1.61,1.61,1.61h14.6l-4.3,20.9
		c-0.05,0.29-0.1,0.63-0.1,0.83C-800.88-621.49-800.25-620.9-799.22-620.9z M-792.19-647.76l4.79-23.39h20.9l-4.79,23.39H-792.19z"
		/>
</g>
</svg>
