<?xml version="1.0" encoding="utf-8"?>
<!-- Generator: Adobe Illustrator 24.1.3, SVG Export Plug-In . SVG Version: 6.00 Build 0)  -->
<svg version="1.1" id="Layer_1" xmlns="http://www.w3.org/2000/svg" xmlns:xlink="http://www.w3.org/1999/xlink" x="0px" y="0px"
	 viewBox="0 0 69.1 77.74" enable-background="new 0 0 69.1 77.74" xml:space="preserve">
<g id="Thin-S" transform="matrix(1 0 0 1 813.087 696)">
	<path fill="#7F7F7F" d="M-751.17-656.04l-29.3,29.3c-7.52,7.52-17.68,6.49-24.12,0c-6.49-6.45-7.52-16.6,0-24.12l38.28-38.28
		c5.18-5.18,12.01-4.3,15.97-0.39c3.91,3.91,4.79,10.74-0.39,15.97l-37.5,37.5c-2.39,2.34-5.27,1.9-7.13,0.1
		c-1.81-1.86-2.25-4.74,0.1-7.13l27.39-27.29c0.73-0.73,0.63-1.71,0.05-2.29c-0.59-0.59-1.46-0.63-2.25,0.1l-27.39,27.39
		c-3.56,3.61-3.22,8.54-0.24,11.57c3.08,3.08,7.96,3.37,11.57-0.24l37.55-37.55c6.74-6.74,5.37-15.28,0.34-20.31
		s-13.53-6.45-20.31,0.34l-38.23,38.23c-9.13,9.13-7.62,21.14-0.1,28.71c7.57,7.52,19.63,8.98,28.71-0.1l29.25-29.25
		c0.68-0.68,0.68-1.76,0.05-2.34C-749.46-656.77-750.44-656.72-751.17-656.04z"/>
</g>
</svg>
