<?xml version="1.0" encoding="utf-8"?>
<!-- Generator: Adobe Illustrator 24.1.3, SVG Export Plug-In . SVG Version: 6.00 Build 0)  -->
<svg version="1.1" id="Layer_1" xmlns="http://www.w3.org/2000/svg" xmlns:xlink="http://www.w3.org/1999/xlink" x="0px" y="0px"
	 viewBox="0 0 38.53 72.12" enable-background="new 0 0 38.53 72.12" xml:space="preserve">
<g id="Thin-S" transform="matrix(1 0 0 1 827.394 696)">
	<path fill="#707070" d="M-809.86-643.56c1.22,0,1.9-0.88,1.9-2.1v-3.32c0-5.66,1.86-8.35,8.5-13.09c7.32-5.22,10.6-9.81,10.6-16.5
		c0-10.3-8.4-17.43-19.29-17.43c-8.74,0-15.92,5.13-18.46,12.7c-0.59,1.71-0.78,3.08-0.78,4.1c0,1.17,0.63,1.86,1.76,1.86
		c1.03,0,1.66-0.59,1.9-1.66c1.32-8.35,7.47-13.43,15.53-13.43c8.59,0,15.43,5.66,15.43,13.87c0,5.37-2.98,9.23-9.33,13.96
		c-6.88,5.03-9.72,8.79-9.72,15.33v3.66C-811.82-644.39-811.13-643.56-809.86-643.56z M-809.72-623.88c1.81,0,3.32-1.51,3.32-3.32
		c0-1.86-1.51-3.37-3.32-3.37c-1.86,0-3.37,1.51-3.37,3.37C-813.09-625.39-811.57-623.88-809.72-623.88z"/>
</g>
</svg>
